<?xml version="1.0" encoding="utf-8"?>
<!-- Generator: Adobe Illustrator 16.0.0, SVG Export Plug-In . SVG Version: 6.00 Build 0)  -->
<!DOCTYPE svg PUBLIC "-//W3C//DTD SVG 1.1//EN" "http://www.w3.org/Graphics/SVG/1.1/DTD/svg11.dtd">
<svg version="1.1" id="Capa_1" xmlns="http://www.w3.org/2000/svg" xmlns:xlink="http://www.w3.org/1999/xlink" x="0px" y="0px"
	 width="385.1px" height="48.2px" viewBox="0 0 385.1 48.2" enable-background="new 0 0 385.1 48.2" xml:space="preserve">
<g>
	<g>
		<g>
			<path fill="#DA291C" d="M101.5,0L61.4,0c-2.9,0-3.6,1.8-1.5,4l13.4,14.5c2.1,2.2,2.1,5.8,0,8l-7.2,7.8c-2,2.2-1.4,4,1.5,4h10
				L101.5,0z"/>
		</g>
		<path fill="#FFFFFF" d="M166.8,9.8c0.9-1.4,1.4-2.8,1.5-4c0.1-1.2-0.2-2.2-0.7-3.1c-0.5-0.8-1.3-1.5-2.3-2c-1-0.5-2.1-0.7-3.3-0.7
			h-51.7L86.4,38.3h51.7c2.1,0,4-0.3,5.8-0.9c1.8-0.6,3.4-1.4,4.8-2.3c1.4-1,2.7-2,3.8-3.2c1.1-1.2,2-2.3,2.6-3.4L166.8,9.8z
			 M149.5,10.8l-10.4,16.6c-0.5,0.6-1.1,1.1-1.7,1.4h-28.5L121,9.4h28.6c0,0.4,0,0.6,0.1,0.8C149.7,10.3,149.7,10.5,149.5,10.8z"/>
		<polygon fill="#FFFFFF" points="220.7,24.8 236.2,0 177.5,0 153.6,38.3 170.2,38.3 188.2,9.4 213.8,9.4 210.1,15.3 188.9,15.3 
			183,24.8 195.3,38.3 215.3,38.3 203.5,24.8 		"/>
		<polygon fill="#FFFFFF" points="240.7,0 216.9,38.3 227.5,48.2 257.5,0 		"/>
		<polygon fill="#FFFFFF" points="315.5,9.4 321.3,0 262.2,0 238.3,38.3 255,38.3 264.1,23.8 306.3,23.8 312.2,14.3 270,14.3 
			273.1,9.4 		"/>
		<polygon fill="#FFFFFF" points="385.1,0 326,0 320.1,9.4 338.1,9.4 343,9.4 325,38.3 335.6,48.2 359.8,9.4 379.4,9.4 		"/>
		<path fill="#DA291C" d="M7.4,34.3l7.1-7.8c2-2.2,2-5.8,0-8L1.2,4.1c-2.1-2.2-1.4-4,1.5-4L42.8,0c2.9,0,6.9,1.8,8.9,4l13,14
			c2,2.2,2.1,5.8,0,8l-7.6,8.2c-2,2.2-6,4-8.9,4L9,38.3C6.1,38.3,5.4,36.5,7.4,34.3z"/>
	</g>
</g>
</svg>
